PathFileType	4	(X/Y/Z)	E:\Qualisys_Data\Carbon_Farble_Plate\Data\Amateur_Runner\S1\T1\S1T1V23_c3d.trc
DataRate	CameraRate	NumFrames	NumMarkers	Units	OrigDataRate	OrigDataStartFrame	OrigNumFrames
200.000000	200.000000	4	39	mm	200.000000	0	273
Frame#	Time	LSHO			RSHO			LICST			RICST			LASIS			LHEEL			RASIS			LTROC			RTROC			SACR			LTH1			LSK4			LTH2			LTH3			RHM5			LSK2			LTH4			RTH1			LTOE			RTH2			RTH3			RTH4			LLEP			RLEP			LSK1			LSK3			RSK1			LHM5			RSK2			LFT1			RSK3			RSK4			LLME			RLME			RTOE			RHEEL			RFT1			RFT2			LFT2			
		X1	Y1	Z1	X2	Y2	Z2	X3	Y3	Z3	X4	Y4	Z4	X5	Y5	Z5	X6	Y6	Z6	X7	Y7	Z7	X8	Y8	Z8	X9	Y9	Z9	X10	Y10	Z10	X11	Y11	Z11	X12	Y12	Z12	X13	Y13	Z13	X14	Y14	Z14	X15	Y15	Z15	X16	Y16	Z16	X17	Y17	Z17	X18	Y18	Z18	X19	Y19	Z19	X20	Y20	Z20	X21	Y21	Z21	X22	Y22	Z22	X23	Y23	Z23	X24	Y24	Z24	X25	Y25	Z25	X26	Y26	Z26	X27	Y27	Z27	X28	Y28	Z28	X29	Y29	Z29	X30	Y30	Z30	X31	Y31	Z31	X32	Y32	Z32	X33	Y33	Z33	X34	Y34	Z34	X35	Y35	Z35	X36	Y36	Z36	X37	Y37	Z37	X38	Y38	Z38	X39	Y39	Z39	

1	0	-2773.04248046875	1541.96484375	-500.0663452148438	-2847.14013671875	1518.531005859375	-187.4368438720703	-2785.17138671875	1053.89501953125	-490.5792846679688	-2804.51220703125	1080.605834960938	-197.2814636230469	-2744.77587890625	1013.856750488281	-463.1012878417969	-3324.21630859375	357.9937744140625	-407.4721984863281	-2762.75341796875	1035.51416015625	-202.3933258056641	-2864.213623046875	940.6931762695312	-510.3831176757812	-2857.1767578125	939.4685668945312	-170.3555755615234	-2913.82666015625	1083.011840820312	-347.4793701171875	-2776.5673828125	766.3712768554688	-472.6084289550781	-3200.931396484375	425.1246337890625	-431.6327819824219	-2852.12158203125	777.4759521484375	-505.616455078125	-2801.870849609375	665.942138671875	-454.9496765136719	-2383.894775390625	158.1856994628906	-182.6196594238281	-3113.324462890625	468.5831909179688	-466.1881408691406	-2881.33740234375	683.5293579101562	-482.0860900878906	-2685.44287109375	862.2052001953125	-192.8245544433594	-3245.719482421875	116.1902160644531	-367.3944396972656	-2751.12353515625	825.449462890625	-162.7088012695312	-2638.106689453125	771.8751220703125	-196.8544006347656	-2707.32861328125	736.1199951171875	-177.8712921142578	-2904.40185546875	529.1350708007812	-446.3593139648438	-2614.953125	595.1851196289062	-210.2810821533203	-3074.608642578125	396.6654357910156	-450.3995971679688	-3166.823974609375	354.6297607421875	-448.649169921875	-2571.342529296875	410.939453125	-182.9891815185547	-3279.85986328125	160.5813903808594	-435.4173583984375	-2648.724609375	390.9953002929688	-203.7572479248047	-3345.249267578125	343.3500366210938	-375.7416076660156	-2541.963134765625	316.0159912109375	-196.3094635009766	-2615.53271484375	296.7560119628906	-224.27490234375	-3282.094482421875	314.4287414550781	-444.4600219726562	-2527.655517578125	175.6906127929688	-199.5059814453125	-2333.69091796875	216.0940246582031	-254.7998504638672	-2568.78466796875	111.4006423950195	-244.5174865722656	-2546.65380859375	94.30728149414062	-280.6253051757812	-2553.322265625	89.05815887451172	-221.703125	-3347.89208984375	338.5186767578125	-430.9999084472656
2	0.005	-2751.942626953125	1541.272827148438	-499.7820129394531	-2825.7431640625	1517.128051757812	-186.6308746337891	-2762.94140625	1053.291015625	-490.3175964355469	-2783.808837890625	1079.014770507812	-196.8844451904297	-2722.435791015625	1013.536437988281	-462.200439453125	-3301.910400390625	365.670166015625	-406.2983703613281	-2742.18701171875	1034.372924804688	-201.5414886474609	-2841.435791015625	939.6614990234376	-510.9153137207031	-2835.94287109375	937.5048217773438	-170.2845611572266	-2892.15576171875	1081.547973632812	-347.0148315429688	-2751.751220703125	765.831787109375	-471.3995666503906	-3176.653564453125	430.4581298828125	-430.8615112304688	-2827.466796875	776.2393798828125	-505.2591552734375	-2775.90283203125	665.2642822265625	-454.2061157226562	-2357.962890625	160.1178283691406	-183.5514984130859	-3088.581298828125	472.1950073242188	-466.0484313964844	-2855.143310546875	681.9334106445312	-481.6199340820312	-2663.921142578125	857.0931396484375	-192.0482482910156	-3224.651611328125	123.5629425048828	-366.9210205078125	-2730.08056640625	821.254638671875	-161.4182434082031	-2619.958740234375	765.1708374023438	-197.7131500244141	-2689.48486328125	730.8833618164062	-176.2121887207031	-2877.843017578125	527.0413208007812	-446.1947937011719	-2596.24267578125	591.3218383789062	-211.3204956054688	-3051.004150390625	398.833984375	-450.0515747070312	-3144.585693359375	359.29541015625	-447.903076171875	-2549.80517578125	409.1769409179688	-183.4791259765625	-3260.542236328125	168.0100555419922	-434.1508178710938	-2626.083740234375	388.1052856445312	-203.9941101074219	-3323.27294921875	352.1839294433594	-375.2510375976562	-2519.177001953125	313.5722961425781	-196.5312347412109	-2592.21875	294.2220153808594	-224.8213195800781	-3261.4189453125	321.4333801269531	-444.3339233398438	-2503.220458984375	174.0801239013672	-200.995361328125	-2308.752685546875	218.9584350585938	-255.3491516113281	-2542.592529296875	109.5971221923828	-244.6491394042969	-2519.003173828125	93.8313446044922	-280.4945678710938	-2525.951171875	86.96408081054688	-221.9366912841797	-3325.7705078125	345.9312744140625	-429.2518920898438
3	0.01	-2729.689453125	1540.393310546875	-498.8768310546875	-2804.362548828125	1515.256469726562	-186.2833251953125	-2741.461181640625	1052.886840820312	-490.0719299316406	-2762.2744140625	1077.696044921875	-196.4510650634766	-2699.949462890625	1012.969360351562	-461.5877685546875	-3278.463134765625	373.1160888671875	-404.4526062011719	-2718.96923828125	1033.545043945312	-201.6533966064453	-2817.88623046875	938.2926635742188	-511.0613098144531	-2814.43896484375	934.43798828125	-170.5975646972656	-2870.59228515625	1079.860961914062	-346.8907165527344	-2726.564208984375	765.109130859375	-470.6902465820312	-3151.453369140625	435.0270080566406	-429.8167114257812	-2801.421142578125	774.2937622070312	-504.4515380859375	-2749.62255859375	664.2320556640625	-453.9527587890625	-2332.9091796875	160.9053955078125	-184.4192962646484	-3062.682861328125	474.7091674804688	-465.7062072753906	-2828.9921875	679.5499877929688	-481.53515625	-2645.609619140625	851.4157104492188	-193.6845092773438	-3203.42724609375	129.8512115478516	-366.7526550292969	-2711.00390625	816.7568359375	-160.565185546875	-2601.256103515625	759.0725708007812	-198.6438598632812	-2670.6240234375	725.3875122070312	-174.1486663818359	-2850.499267578125	524.6561889648438	-446.1131286621094	-2576.8916015625	587.908935546875	-211.3384857177734	-3027.433349609375	400.8097229003906	-449.8919067382812	-3121.34033203125	363.783447265625	-447.6896362304688	-2527.479248046875	407.8112182617188	-184.4149017333984	-3239.887939453125	175.4472351074219	-434.3830261230469	-2604.651123046875	385.5372619628906	-204.4021759033203	-3299.706298828125	359.904541015625	-373.5880737304688	-2496.5634765625	312.4620056152344	-196.1571655273438	-2568.614501953125	291.4147033691406	-224.3907470703125	-3239.138671875	328.6194458007812	-443.9353942871094	-2479.47314453125	172.6347808837891	-201.6356048583984	-2285.874755859375	220.64404296875	-256.6442260742188	-2516.3994140625	106.9263610839844	-244.5599517822266	-2494.686279296875	91.3059539794922	-280.6393737792969	-2500.684326171875	85.29571533203125	-222.3486938476562	-3303.493896484375	355.070068359375	-427.7575073242188
4	0.015	-2707.357177734375	1539.12109375	-498.1676025390625	-2782.432373046875	1513.3818359375	-185.2684631347656	-2719.723388671875	1051.794189453125	-489.8810119628906	-2740.24462890625	1076.183837890625	-195.6211090087891	-2678.58642578125	1012.674560546875	-461.7697143554688	-3253.832763671875	380.7852478027344	-402.6488342285156	-2699.064697265625	1031.247436523438	-200.7328338623047	-2795.29248046875	936.614501953125	-511.3024597167969	-2792.644775390625	931.8591918945312	-170.0141448974609	-2849.156494140625	1077.77099609375	-346.53466796875	-2701.660400390625	763.9052124023438	-470.1602172851562	-3125.70556640625	439.7156372070312	-429.0693054199219	-2776.671630859375	772.1405639648438	-503.4609680175781	-2722.91357421875	662.3759155273438	-453.12890625	-2310.072998046875	160.5150299072266	-185.763916015625	-3035.933349609375	477.3532409667969	-464.5216979980469	-2802.30419921875	676.7706298828125	-481.3149719238281	-2625.370361328125	845.3861694335938	-194.1227722167969	-3182.61767578125	137.2107086181641	-367.1872253417969	-2690.59375	812.6134033203125	-159.5523223876953	-2582.779052734375	753.3758544921875	-198.82763671875	-2653.030029296875	720.9374389648438	-172.7155914306641	-2822.892333984375	522.2654418945312	-446.3907775878906	-2557.968505859375	584.6226196289062	-211.6334838867188	-3002.103515625	402.0758056640625	-449.5467529296875	-3098.13671875	368.3938598632812	-447.1604919433594	-2506.444580078125	405.9318542480469	-186.5433959960938	-3218.562744140625	182.6569366455078	-433.9715576171875	-2583.9345703125	383.8119812011719	-205.8572692871094	-3275.088134765625	367.8393859863281	-371.8399047851562	-2474.7109375	311.4009399414062	-197.2003936767578	-2547.049560546875	289.6277770996094	-225.2037506103516	-3216.05126953125	335.3695983886719	-442.2361450195312	-2456.559326171875	171.1535034179688	-202.3399810791016	-2264.080810546875	220.4490051269531	-258.0648498535156	-2494.2216796875	105.7976303100586	-244.440673828125	-2471.426025390625	89.33786010742188	-280.5823364257812	-2477.855712890625	83.51112365722656	-223.3422698974609	-3279.5048828125	363.1148376464844	-425.5665893554688
